g my_poolparty_01_b_wall_left
v -0.8976286 1.913309E-06 -0.2843449
v 0.3023711 -4.756438E-07 -0.2843431
v 0.3023729 0.297173 -0.2843437
v -0.8976267 0.2971747 -0.2843455
v 0.302371 -4.756438E-07 3.356934E-06
v 0.3023711 -4.756438E-07 -0.2843431
v -0.8976286 1.913309E-06 -0.2843449
v -0.8976287 1.913309E-06 1.678467E-06
v 0.3023686 -9.524811E-07 4.381051
v -0.8976311 1.436472E-06 4.38105
v 0.3023728 0.297173 3.204346E-06
v 0.3023729 0.297173 -0.2843437
v 0.3023711 -4.756438E-07 -0.2843431
v 0.302371 -4.756438E-07 3.356934E-06
v 0.3023703 0.2971725 4.381051
v 0.3023686 -9.524811E-07 4.381051
v -0.8976287 1.913309E-06 1.678467E-06
v -0.8976286 1.913309E-06 -0.2843449
v -0.8976267 0.2971747 -0.2843455
v -0.8976268 0.2971747 1.373291E-06
v -0.8976311 1.436472E-06 4.38105
v -0.8976294 0.2971741 4.38105
v -0.8976305 1.074075E-06 4.515655
v -0.8976286 0.2971737 4.515655
v -0.8976268 0.2971747 1.373291E-06
v -0.8976267 0.2971747 -0.2843455
v 0.3023729 0.297173 -0.2843437
v 0.3023728 0.297173 3.204346E-06
v 0.3023703 0.2971725 4.381051
v -0.8976294 0.2971741 4.38105
v 0.3023711 0.2971721 4.515656
v -0.8976286 0.2971737 4.515655
v 0.3023686 -9.524811E-07 4.381051
v 0.3023693 -1.314877E-06 4.515656
v 0.3023711 0.2971721 4.515656
v 0.3023703 0.2971725 4.381051
v -0.8976305 1.074075E-06 4.515655
v -0.8976286 0.2971737 4.515655
v 0.3023711 0.2971721 4.515656
v 0.3023693 -1.314877E-06 4.515656
v 0.3023693 -1.314877E-06 4.515656
v 0.3023686 -9.524811E-07 4.381051
v -0.8976311 1.436472E-06 4.38105
v -0.8976305 1.074075E-06 4.515655
vt 0.7936584 0.06519664
vt 0.9850127 0.06519664
vt 0.9850127 0.01780878
vt 0.7936584 0.01780878
vt 0.01141915 0.06792475
vt 0.01141937 0.01108793
vt 0.2571758 0.01108786
vt 0.2571756 0.06792475
vt 0.01138968 0.9231304
vt 0.2571464 0.9231343
vt 0.2743987 0.06792475
vt 0.2743987 0.01059743
vt 0.3315123 0.01059763
vt 0.3315123 0.06792475
vt 0.2743987 0.9486718
vt 0.3315123 0.9486718
vt 0.3315123 0.06792475
vt 0.3315123 0.01059748
vt 0.2743987 0.01059743
vt 0.2743987 0.06792475
vt 0.3315123 0.9486718
vt 0.2743987 0.9486718
vt 0.3315123 0.9781957
vt 0.2743987 0.9781957
vt 0.9850683 0.1248167
vt 0.9850683 0.0794738
vt 0.7937142 0.07947392
vt 0.7937142 0.1248167
vt 0.7937142 0.8127592
vt 0.9850683 0.8127592
vt 0.7942413 0.8320929
vt 0.9856873 0.8320929
vt 0.2743987 0.9486718
vt 0.2743987 0.9781957
vt 0.3315123 0.9781957
vt 0.3315123 0.9486718
vt 0.3475137 0.8577872
vt 0.3475141 0.9406449
vt 0.6820979 0.9406443
vt 0.6820975 0.8577866
vt 0.01109052 0.9238473
vt 0.01109052 0.9567156
vt 0.2572075 0.9567156
vt 0.2572075 0.9238473
vn 1.525876E-06 -2.053868E-06 -1
vn 1.525876E-06 -2.053868E-06 -1
vn 1.525876E-06 -2.053868E-06 -1
vn 1.525876E-06 -2.053868E-06 -1
vn -1.990794E-06 -1 0
vn -1.990794E-06 -1 0
vn -1.990794E-06 -1 0
vn -1.990794E-06 -1 0
vn -1.990795E-06 -1 -1.08842E-07
vn -1.990795E-06 -1 -1.08842E-07
vn 1 -6.097386E-06 4.171425E-07
vn 1 -6.161569E-06 2.683131E-07
vn 1 -6.16157E-06 2.683132E-07
vn 1 -6.097386E-06 4.171426E-07
vn 1 -5.96902E-06 -2.551024E-06
vn 1 -5.969021E-06 -2.55103E-06
vn -1 6.289949E-06 -4.214961E-07
vn -1 6.418315E-06 -2.683131E-07
vn -1 6.418314E-06 -2.68313E-07
vn -1 6.289948E-06 -4.214959E-07
vn -1 6.097397E-06 2.404971E-06
vn -1 6.097397E-06 2.404969E-06
vn -1 6.033211E-06 5.384618E-06
vn -1 6.033211E-06 5.384618E-06
vn 1.438459E-06 1 0
vn 1.478195E-06 1 0
vn 1.478196E-06 1 0
vn 1.438459E-06 1 0
vn 1.366933E-06 1 1.409278E-06
vn 1.366933E-06 1 1.409272E-06
vn 1.335143E-06 1 2.692294E-06
vn 1.335143E-06 1 2.692294E-06
vn 1 -5.969021E-06 -2.55103E-06
vn 1 -5.904838E-06 -5.668026E-06
vn 1 -5.904837E-06 -5.668026E-06
vn 1 -5.96902E-06 -2.551024E-06
vn -7.629413E-07 -1.026925E-06 1
vn -7.629413E-07 -1.026925E-06 1
vn -7.629413E-07 -1.026925E-06 1
vn -7.629413E-07 -1.026925E-06 1
vn -1.990792E-06 -1 -2.692293E-06
vn -1.990792E-06 -1 -2.692293E-06
vn -1.990792E-06 -1 -2.692293E-06
vn -1.990792E-06 -1 -2.692293E-06
g my_poolparty_01_b_wall_left_0
f 3/3/3 2/2/2 1/1/1
f 4/4/4 3/3/3 1/1/1
f 7/7/7 6/6/6 5/5/5
f 8/8/8 7/7/7 5/5/5
f 8/8/8 5/5/5 9/9/9
f 10/10/10 8/8/8 9/9/9
f 13/13/13 12/12/12 11/11/11
f 14/14/14 13/13/13 11/11/11
f 11/11/11 15/15/15 14/14/14
f 15/15/15 16/16/16 14/14/14
f 19/19/19 18/18/18 17/17/17
f 20/20/20 19/19/19 17/17/17
f 17/17/17 21/21/21 20/20/20
f 21/21/21 22/22/22 20/20/20
f 21/21/21 23/23/23 22/22/22
f 23/23/23 24/24/24 22/22/22
f 27/27/27 26/26/26 25/25/25
f 28/28/28 27/27/27 25/25/25
f 29/29/29 28/28/28 25/25/25
f 30/30/30 29/29/29 25/25/25
f 31/31/31 29/29/29 30/30/30
f 32/32/32 31/31/31 30/30/30
f 35/35/35 34/34/34 33/33/33
f 36/36/36 35/35/35 33/33/33
f 39/39/39 38/38/38 37/37/37
f 40/40/40 39/39/39 37/37/37
f 43/43/43 42/42/42 41/41/41
f 44/44/44 43/43/43 41/41/41
